<svg xmlns:xlink="http://www.w3.org/1999/xlink" width="254" height="236" viewBox="0 0 254 236" version="1.1"
     xmlns="http://www.w3.org/2000/svg">
    <title>Markd-Logo</title>
    <desc>Created using Figma</desc>
    <g id="Canvas" transform="translate(2 2)">
        <g id="Markd-Logo">
            <g id="Vector">
                <use xlink:href="#path0_stroke" transform="translate(133.344 24.9888)"/>
            </g>
            <g id="Vector">
                <use xlink:href="#path1_stroke" transform="translate(5.68434e-14 24.3392)"/>
            </g>
            <g id="Vector">
                <use xlink:href="#path2_stroke" transform="translate(5.68434e-14 0)"/>
            </g>
        </g>
    </g>
    <defs>
        <path id="path0_stroke"
              d="M 66.63 48.7096L 65.1323 48.793L 65.2113 50.2096L 66.63 50.2096L 66.63 48.7096ZM 16.68 49.3496L 15.1807 49.3045L 15.18 49.327L 15.18 49.3496L 16.68 49.3496ZM 16.68 49.9996L 15.18 49.9996L 18.18 50.0013L 16.68 49.9996ZM -3.66211e-06 2.85955L -0.500003 1.44534L -2.50362 2.15372L -1.16506 3.80435L -3.66211e-06 2.85955ZM 66.65 48.7096L 66.65 50.2096L 68.1892 50.2096L 68.1495 48.6708L 66.65 48.7096ZM 68.1277 48.6261C 67.7476 41.805 64.7479 35.3942 59.7546 30.7316L 57.7072 32.9243C 62.1352 37.059 64.7953 42.7441 65.1323 48.793L 68.1277 48.6261ZM 59.7546 30.7316C 54.7614 26.0691 48.1603 23.5151 41.3292 23.6026L 41.3676 26.6024C 47.4254 26.5247 53.2792 28.7896 57.7072 32.9243L 59.7546 30.7316ZM 41.3292 23.6026C 34.4981 23.6901 27.9647 26.4124 23.0925 31.2014L 25.1955 33.3409C 29.5161 29.0941 35.3099 26.68 41.3676 26.6024L 41.3292 23.6026ZM 23.0925 31.2014C 18.2203 35.9903 15.3859 42.4759 15.1807 49.3045L 18.1793 49.3946C 18.3613 43.339 20.8749 37.5877 25.1955 33.3409L 23.0925 31.2014ZM 15.18 49.3496C 15.18 49.5696 15.18 49.7796 15.18 49.9996L 18.18 49.9996C 18.18 49.7796 18.18 49.5696 18.18 49.3496L 15.18 49.3496ZM 18.18 50.0013C 18.179 32.5837 12.1189 15.4569 1.16506 1.91476L -1.16506 3.80435C 9.50172 16.9233 15.222 33.0896 15.18 49.9978L 18.18 50.0013ZM 0.499996 4.27377C 7.76904 1.69275 15.3739 0.89718 23.0197 1.91791L 23.4127 -1.05624C 15.4146 -2.10254 7.10839 -1.23361 -0.500003 1.44534L 0.499996 4.27377ZM 23.0197 1.91791C 30.6683 2.91802 37.8055 5.66145 44.1547 10.0418L 45.855 7.57021C 39.2035 3.00711 31.4081 0.0106677 23.4127 -1.05624L 23.0197 1.91791ZM 44.1547 10.0418C 50.5158 14.4051 55.6298 20.0896 59.2986 26.8749L 61.9356 25.4445C 58.0804 18.3592 52.4948 12.1504 45.855 7.57021L 44.1547 10.0418ZM 59.2986 26.8749C 62.9856 33.6503 64.9618 41.0369 65.1505 48.7483L 68.1495 48.6708C 67.9309 40.6075 65.7725 32.5398 61.9356 25.4445L 59.2986 26.8749ZM 66.65 47.2096L 66.63 47.2096L 66.63 50.2096L 66.65 50.2096L 66.65 47.2096Z"/>
        <path id="path1_stroke"
              d="M 99.9742 49.3592L 98.4765 49.4426L 98.5554 50.8592L 99.9742 50.8592L 99.9742 49.3592ZM 50.0242 49.9992L 48.5248 49.9541L 48.5242 49.9766L 48.5242 49.9992L 50.0242 49.9992ZM 50.0242 205.649L 48.9618 206.708L 51.5242 209.279L 51.5242 205.649L 50.0242 205.649ZM 25.0242 180.569L 26.0865 179.51L 25.0246 178.445L 23.9622 179.51L 25.0242 180.569ZM 0.00416555 205.649L -1.49583 205.649L -1.49583 209.277L 1.0661 206.709L 0.00416555 205.649ZM 0.00416555 50.6492L 1.50417 50.6492L 1.50417 50.6395L 1.50404 50.6298L 0.00416555 50.6492ZM 100.004 49.3592L 100.004 50.8592L 101.524 50.8592L 101.504 49.3398L 100.004 49.3592ZM 101.472 49.2757C 101.092 42.4546 98.0921 36.0438 93.0988 31.3813L 91.0513 33.574C 95.4793 37.7087 98.1394 43.3937 98.4765 49.4426L 101.472 49.2757ZM 93.0988 31.3813C 88.1055 26.7187 81.5045 24.1647 74.6734 24.2522L 74.7118 27.252C 80.7696 27.1744 86.6233 29.4392 91.0513 33.574L 93.0988 31.3813ZM 74.6734 24.2522C 67.8422 24.3397 61.3088 27.0621 56.4367 31.851L 58.5396 33.9905C 62.8602 29.7437 68.654 27.3296 74.7118 27.252L 74.6734 24.2522ZM 56.4367 31.851C 51.5645 36.64 48.73 43.1255 48.5248 49.9541L 51.5235 50.0442C 51.7055 43.9887 54.219 38.2373 58.5396 33.9905L 56.4367 31.851ZM 48.5242 49.9992C 48.5242 50.2192 48.5242 50.4292 48.5242 50.6492L 51.5242 50.6492C 51.5242 50.4292 51.5242 50.2192 51.5242 49.9992L 48.5242 49.9992ZM 48.5242 50.6492L 48.5242 205.649L 51.5242 205.649L 51.5242 50.6492L 48.5242 50.6492ZM 51.0865 204.59L 26.0865 179.51L 23.9618 181.628L 48.9618 206.708L 51.0865 204.59ZM 23.9622 179.51L -1.05776 204.59L 1.0661 206.709L 26.0861 181.629L 23.9622 179.51ZM 1.50417 205.649L 1.50417 50.6492L -1.49583 50.6492L -1.49583 205.649L 1.50417 205.649ZM 1.50404 50.6298C 1.33811 37.7668 6.28879 25.3647 15.267 16.1518L 13.1185 14.058C 3.58498 23.8407 -1.67191 37.0099 -1.49571 50.6685L 1.50404 50.6298ZM 15.267 16.1518C 24.2452 6.93893 36.5155 1.66997 49.3785 1.50404L 49.3398 -1.49571C 35.6812 -1.31951 22.652 4.27533 13.1185 14.058L 15.267 16.1518ZM 49.3785 1.50404C 62.2415 1.33811 74.6437 6.28879 83.8565 15.267L 85.9503 13.1185C 76.1676 3.58498 62.9984 -1.67191 49.3398 -1.49571L 49.3785 1.50404ZM 83.8565 15.267C 93.0694 24.2452 98.3384 36.5155 98.5043 49.3785L 101.504 49.3398C 101.328 35.6812 95.733 22.652 85.9503 13.1185L 83.8565 15.267ZM 100.004 47.8592L 99.9742 47.8592L 99.9742 50.8592L 100.004 50.8592L 100.004 47.8592Z"/>
        <path id="path2_stroke"
              d="M 250.004 229.988L 248.942 231.047L 251.504 233.618L 251.504 229.988L 250.004 229.988ZM 225.004 204.908L 226.067 203.849L 225.004 202.784L 223.942 203.849L 225.004 204.908ZM 200.004 229.988L 198.504 229.988L 198.504 233.618L 201.067 231.047L 200.004 229.988ZM 200.004 73.6983L 201.504 73.6983L 201.504 73.679L 201.504 73.6596L 200.004 73.6983ZM 133.354 27.8483L 132.854 26.4341L 130.852 27.142L 132.189 28.7924L 133.354 27.8483ZM 150.004 74.9883L 148.504 74.9858L 148.504 74.9883L 150.004 74.9883ZM 150.004 229.988L 148.942 231.047L 151.504 233.618L 151.504 229.988L 150.004 229.988ZM 125.004 204.908L 126.067 203.849L 125.004 202.784L 123.942 203.849L 125.004 204.908ZM 100.004 229.988L 98.5042 229.988L 98.5042 233.618L 101.067 231.047L 100.004 229.988ZM 100.004 73.6983L 101.504 73.6983L 101.504 73.6887L 101.504 73.679L 100.004 73.6983ZM 0.00416555 74.9883L -1.49571 75.0077L 1.50417 74.9886L 0.00416555 74.9883ZM 125.004 19.0983L 124.004 20.2164L 125.004 21.1108L 126.004 20.2164L 125.004 19.0983ZM 248.504 74.9883L 248.504 229.988L 251.504 229.988L 251.504 74.9883L 248.504 74.9883ZM 251.067 228.929L 226.067 203.849L 223.942 205.967L 248.942 231.047L 251.067 228.929ZM 223.942 203.849L 198.942 228.929L 201.067 231.047L 226.067 205.967L 223.942 203.849ZM 201.504 229.988L 201.504 74.9883L 198.504 74.9883L 198.504 229.988L 201.504 229.988ZM 201.504 74.9883C 201.504 74.5583 201.504 74.1283 201.504 73.6983L 198.504 73.6983C 198.504 74.1283 198.504 74.5583 198.504 74.9883L 201.504 74.9883ZM 201.504 73.6596C 201.285 65.5963 199.127 57.5286 195.29 50.4333L 192.653 51.8637C 196.34 58.6391 198.316 66.0257 198.505 73.7371L 201.504 73.6596ZM 195.29 50.4333C 191.435 43.348 185.849 37.1392 179.209 32.559L 177.509 35.0306C 183.87 39.3939 188.984 45.0784 192.653 51.8637L 195.29 50.4333ZM 179.209 32.559C 172.558 27.9959 164.762 24.9995 156.767 23.9325L 156.374 26.9067C 164.022 27.9068 171.16 30.6502 177.509 35.0306L 179.209 32.559ZM 156.767 23.9325C 148.769 22.8862 140.463 23.7552 132.854 26.4341L 133.854 29.2626C 141.123 26.6815 148.728 25.886 156.374 26.9067L 156.767 23.9325ZM 132.189 28.7924C 142.845 41.9154 148.554 58.0812 148.504 74.9858L 151.504 74.9909C 151.512 57.5769 145.463 40.4505 134.52 26.9043L 132.189 28.7924ZM 148.504 74.9883L 148.504 229.988L 151.504 229.988L 151.504 74.9883L 148.504 74.9883ZM 151.067 228.929L 126.067 203.849L 123.942 205.967L 148.942 231.047L 151.067 228.929ZM 123.942 203.849L 98.9418 228.929L 101.067 231.047L 126.067 205.967L 123.942 203.849ZM 101.504 229.988L 101.504 74.9883L 98.5042 74.9883L 98.5042 229.988L 101.504 229.988ZM 101.504 74.9883C 101.504 74.5583 101.504 74.1283 101.504 73.6983L 98.5042 73.6983C 98.5042 74.1283 98.5042 74.5583 98.5042 74.9883L 101.504 74.9883ZM 101.504 73.679C 101.328 60.0204 95.733 46.9912 85.9503 37.4577L 83.8565 39.6062C 93.0694 48.5844 98.3384 60.8547 98.5043 73.7177L 101.504 73.679ZM 85.9503 37.4577C 76.1676 27.9242 62.9984 22.6673 49.3398 22.8435L 49.3785 25.8432C 62.2415 25.6773 74.6437 30.628 83.8565 39.6062L 85.9503 37.4577ZM 49.3398 22.8435C 35.6812 23.0197 22.652 28.6145 13.1185 38.3972L 15.267 40.491C 24.2452 31.2781 36.5155 26.0092 49.3785 25.8432L 49.3398 22.8435ZM 13.1185 38.3972C 3.58498 48.1799 -1.67191 61.3491 -1.49571 75.0077L 1.50404 74.969C 1.33811 62.106 6.28879 49.7039 15.267 40.491L 13.1185 38.3972ZM 1.50417 74.9886C 1.49091 60.7263 5.56117 46.9713 13.3334 35.0129L 10.8163 33.3808C 2.83612 45.7167 -1.47807 60.296 -1.49583 74.9881L 1.50417 74.9886ZM 13.3334 35.0129C 21.0797 23.0376 31.9768 13.7091 45.0032 7.90169L 43.7786 5.16298C 30.3725 11.1741 18.8224 21.0617 10.8163 33.3808L 13.3334 35.0129ZM 45.0032 7.90169C 58.0169 2.06603 72.2349 0.165099 86.3246 2.37707L 86.7867 -0.587136C 72.2675 -2.83472 57.1974 -0.819871 43.7786 5.16298L 45.0032 7.90169ZM 86.3246 2.37707C 100.419 4.55845 113.384 10.6967 124.004 20.2164L 126.004 17.9803C 115.043 8.19711 101.301 1.69104 86.7867 -0.587136L 86.3246 2.37707ZM 126.004 20.2164C 136.624 10.6967 149.589 4.55845 163.684 2.37707L 163.222 -0.587136C 148.707 1.69104 134.965 8.19711 124.004 17.9803L 126.004 20.2164ZM 163.684 2.37707C 177.773 0.165099 191.991 2.06603 205.005 7.90169L 206.23 5.16298C 192.811 -0.819871 177.741 -2.83472 163.222 -0.587136L 163.684 2.37707ZM 205.005 7.90169C 218.032 13.7091 228.929 23.0376 236.675 35.0129L 239.192 33.3808C 231.186 21.0617 219.636 11.1741 206.23 5.16298L 205.005 7.90169ZM 236.675 35.0129C 244.447 46.9713 248.517 60.7263 248.504 74.9886L 251.504 74.9881C 251.486 60.296 247.172 45.7167 239.192 33.3808L 236.675 35.0129Z"/>
    </defs>
</svg>
